<?xml version="1.0" encoding="UTF-8"?>
<svg id="Character-2" data-name="Character" xmlns="http://www.w3.org/2000/svg" width="800.000000000002728" height="800.000000000001819" viewBox="0 0 800.000000000002728 800.000000000001819">
  <defs>
    <style>
      .cls-1 {
        fill: #00c6ba;
      }

      .cls-2, .cls-3, .cls-4, .cls-5, .cls-6 {
        fill: #fff;
      }

      .cls-7 {
        fill: #101150;
      }

      .cls-3, .cls-8, .cls-9, .cls-5, .cls-10, .cls-11, .cls-6, .cls-12 {
        stroke: #101050;
      }

      .cls-3, .cls-8, .cls-9, .cls-11 {
        stroke-miterlimit: 10;
      }

      .cls-3, .cls-9, .cls-4, .cls-5, .cls-13, .cls-14, .cls-10, .cls-6, .cls-12 {
        stroke-width: 2px;
      }

      .cls-8 {
        stroke-width: 4px;
      }

      .cls-8, .cls-9, .cls-11, .cls-12 {
        fill: #101050;
      }

      .cls-8, .cls-4, .cls-5, .cls-13, .cls-14, .cls-10 {
        stroke-linecap: round;
      }

      .cls-4, .cls-5, .cls-13, .cls-14, .cls-10, .cls-6, .cls-12 {
        stroke-linejoin: round;
      }

      .cls-4, .cls-14 {
        stroke: #150b5c;
      }

      .cls-13 {
        stroke: #fff;
      }

      .cls-13, .cls-14, .cls-10 {
        fill: none;
      }
    </style>
  </defs>
  <g>
    <rect class="cls-9" x="316.516954242733846" y="51.816528441099763" width="335.498060422344224" height="696.360633660256099" rx="46.446309178358156" ry="46.446309178358156"/>
    <rect class="cls-3" x="297.242677600471325" y="51.816528441099763" width="335.498060422338312" height="696.360633660256099" rx="46.446309178355477" ry="46.446309178355477"/>
    <path class="cls-6" d="m536.52981356966302,72.155577621739212h.000000018787432c.000000010766598,12.3435555142878-10.45157512062724,22.946499786170534-23.2257225142057,22.946499786329696l-96.482346479746411.000000001195076c-12.77414738909647.000000000155524-23.225722520776799-10.602944277557071-23.225722514796871-22.946499787524772h0l-.007075135011291.001406244912687h-49.826916701122173c-14.508334664059475,0-26.322485516425331,11.814150852378589-26.322485516425331,26.322485516433517v603.466206186892123c0,14.523818479066904,11.814150852365856,26.322485516447159,26.322485516425331,26.322485516447159h242.600413571522949c14.508334664054019,0,26.322485516433517-11.798667037380255,26.322485516433517-26.322485516447159V98.479469383085416c0-14.508334664054928-11.814150852379498-26.322485516433517-26.322485516433517-26.322485516433517h-49.826916701113987l-.005713544313949-.001406244912687Z"/>
    <rect class="cls-3" x="297.242677600471325" y="51.816528441099763" width="335.498060422338312" height="696.360633660256099" rx="46.446309178355477" ry="46.446309178355477"/>
    <path class="cls-6" d="m536.52981356966302,72.155577621739212h.000000018787432c.000000010766598,12.3435555142878-10.45157512062724,22.946499786170534-23.2257225142057,22.946499786329696l-96.482346479746411.000000001195076c-12.77414738909647.000000000155524-23.225722520776799-10.602944277557071-23.225722514796871-22.946499787524772h0l-.007075135011291.001406244912687h-49.826916701122173c-14.508334664059475,0-26.322485516425331,11.814150852378589-26.322485516425331,26.322485516433517v603.466206186892123c0,14.523818479066904,11.814150852365856,26.322485516447159,26.322485516425331,26.322485516447159h242.600413571522949c14.508334664054019,0,26.322485516433517-11.798667037380255,26.322485516433517-26.322485516447159V98.479469383085416c0-14.508334664054928-11.814150852379498-26.322485516433517-26.322485516433517-26.322485516433517h-49.826916701113987l-.005713544313949-.001406244912687Z"/>
  </g>
  <g>
    <rect class="cls-5" x="431.60946189342576" y="296.855848566791792" width="72.071865058293952" height="70.663975313577794"/>
    <g>
      <circle class="cls-5" cx="510.46168268796032" cy="280.81134442829034" r="14.257223258927866"/>
      <path class="cls-5" d="m506.974726397972518,273.673380695052401c1.052631762697274-.51518613029657,2.236021025246373-.804384944286539,3.486956289988484-.804384944286539,4.386438052196354,0,7.942348677517657,3.555910625331308,7.942348677517657,7.942348677525843,0,4.386438052188169-3.555910625321303,7.942348677519476-7.942348677517657,7.942348677519476-.88300734535278,0-1.732358992008812-.14409717567014-2.525822633449025-.410059220478615"/>
      <path class="cls-5" d="m454.602529288846199,341.873272173008445l-1.960142926722256-.000000000030013c-26.656138175738306,0-39.445022011997025-21.226936817395654-39.445022011997025-43.909108145939172l.000000004147296-64.863738658450529c.000000001392436-23.026000361359365,17.150357072185216-41.865455202643716,40.176357433544581-41.86545520287109l1.960142928452115-.00000000001819c28.081710876444049,0,48.350885248753002,14.552710377229232,48.350885248753002,41.86545520301479l.000000004259164,58.348646893730802c0,25.577767668365595-22.923471021415935,50.424199910563402-49.082220680436876,50.424199910563402Z"/>
      <path class="cls-8" d="m497.338471449114877,232.440839314074765c-.007729571177151-3.899468275349136-4.707407032648916-6.049359909330633-7.908411556714782-3.633992549332106-8.421171488701475,6.354324898326013-22.909160122053436,14.373446375379899-40.135755584145045,11.778219146076481-18.730192232020272-2.821747628416233-15.895331958205134-12.673188860942901-15.895331958205134-12.673188860942901,0,0-40.586977859542458,27.018720961424151-50.839831580624377,6.590467196202553-6.812285124937262-13.573107842865284,17.283019668860106-23.894244294799137,17.283019668860106-23.894244294799137,0,0-19.116641032868756-19.204943391314373,35.575266763597938-27.766547138480746,57.273656420848965-8.965756931596843,63.518251118724038,14.01803901567655,61.310566124519937,21.917383048804368h0s10.482566570472954.416064350466513,13.646048519780379,10.479752327328242c4.520045146739903,14.379195053761578,0,50.45132549430582,0,50.45132549430582l-8.08812389808827,1.728214972223213v7.079540034316778h-4.864080766368716l-.083365732612037-42.056929375702566Z"/>
      <path class="cls-10" d="m434.77162774216049,268.347413820118163l-6.459958782897957,24.016913056265366c-.663183436207873,2.462993337198895,1.079678150425025,4.914762051056641,3.493702296558695,4.914762051056641h9.568229045397857"/>
      <ellipse class="cls-12" cx="450.100608116089688" cy="270.309332338665172" rx="3.388851109248435" ry="5.584901214992442"/>
      <ellipse class="cls-12" cx="424.813928734528645" cy="270.309332338665172" rx="3.388851109249345" ry="5.584901214992442"/>
    </g>
    <path class="cls-11" d="m502.775643794425378,261.601297152710686c0,5.014607896586313-.000000000929504,17.524822586488881-.000000000929504,17.524822586488881-8.762339423344201.371461379243556-47.364814589842354.88316968043182-67.331005060923417.88316968043182-26.317898285304182,0-24.66134361765944,0-24.66134361765944,0v-23.723539897681803s1.932250022295193.124483685105588,25.139857992729958.124483685105588c30.863716024584392,0,67.761596861640101-1.260932505098026,67.761596861640101-1.260932505098026l-.909106174857698,6.451996450753541Z"/>
    <path class="cls-2" d="m428.837926348128349,267.898768632445353l-12.8932176407734-5.689159920765633c-.494120010497682-.218031513780261-.947387948192045.596556613078064-.85493022827086,1.54302314261804.317229749259241,3.247401516324317,1.476118752708317,9.500803247812655,5.707605443509237,10.914500149742707,4.930734927716003,1.647308664967568,7.398957765709383-2.229295400380579,8.41780414650475-4.624470022920832.328380451198427-.771979503594594.129876503075138-1.920117520286112-.377261720969727-2.143893348674283Z"/>
    <path class="cls-2" d="m442.725012248384701,267.963884766633782l20.876900942486827-5.798332843721255c.800086898429981-.222215459747531,1.525485964205473.588651408453188,1.368154236169175,1.536005057983857-.539817601849791,3.250445295191639-2.464637847834638,9.514320757822134-9.312511107963473,10.963795452860722-7.979476323914241,1.688998696625276-11.934266759287311-2.16727729161903-13.560055555158215-4.55415227663525-.524001722370485-.769304479386847-.193654710219562-1.91924538481635.627511484465685-2.147315390488075Z"/>
    <path class="cls-10" d="m431.605438388614857,306.597653872062438s4.909867814782046,6.602711399562395,14.471826872199017,4.575389127499875c8.609886693131557-1.825464316265425,10.615603854718756-9.310000572501849,10.615603854718756-9.310000572501849"/>
    <path class="cls-12" d="m431.605438388614857,345.775798139310609s7.753900228191014,7.977292647496142,28.66669254390672,2.895596339819349c19.755561462955484-4.800495420549851,29.298435937289469-23.074824508735219,29.298435937289469-23.074824508735219,0,0-14.875560426234188,16.431646555440238-32.387360810704195,16.431646555440238-20.043811485728838,0-25.577767670491994-5.709821301880766-25.577767670491994-5.709821301880766v9.457402915356397Z"/>
  </g>
  <g>
    <g>
      <circle class="cls-7" cx="410.452342582723077" cy="445.210095962390824" r="45.060215094501501" transform="translate(-139.130587264563701 190.962660775802362) rotate(-22.499973817708188)"/>
      <line class="cls-13" x1="425.267344945918921" y1="430.390944362358823" x2="395.637518685572104" y2="460.020770622715645"/>
      <line class="cls-13" x1="395.637518686247859" y1="430.390944361700349" x2="425.267344945242257" y2="460.020770623375938"/>
    </g>
    <circle class="cls-10" cx="521.56859680531511" cy="445.205771895108228" r="45.060215094501082" transform="translate(-130.670730170327147 233.484632543021661) rotate(-22.499973665771154)"/>
    <path class="cls-10" d="m540.261451443431724,432.840216055828932l-24.924588221244449,24.731282873417513-12.461121055003787-12.36571253098009"/>
  </g>
  <g>
    <polyline class="cls-10" points="577.705827784863686 191.978848677807946 577.705827785952351 167.602593181670272 553.329572289813768 167.602593180579788"/>
    <polyline class="cls-10" points="354.684399530618066 191.978859410079167 354.684399530618066 167.602597069672811 379.060661871008051 167.602597069672811"/>
    <polyline class="cls-10" points="354.684399531710369 343.179730712037781 354.684399530618066 367.555993052428676 379.060661871008051 367.55599305351916"/>
    <polyline class="cls-10" points="577.705827785952351 343.179732882627832 577.705827785952351 367.555996941013291 553.329563727566892 367.555996941013291"/>
  </g>
  <rect class="cls-4" x="150.215176353334755" y="514.119437278052828" width="391.16626747956343" height="234.064034280849228" rx="13.073823046189318" ry="13.073823046189318"/>
  <path class="cls-4" d="m498.982926426097947,572.249957498872391h-28.04784209877289c-8.034046010094244,0-14.56995104352427-6.977315160211219-14.56995104352427-15.553566409457744v-.586174266814851c0-8.576251249224697,6.535905033430026-15.553566409432278,14.56995104352427-15.553566409432278h28.04784209877289c8.033686657506223,0,14.569591690892594,6.977315160207581,14.569591690892594,15.553566409432278v.586174266814851c0,8.576251249246525-6.535905033386371,15.553566409457744-14.569591690892594,15.553566409457744Z"/>
  <path class="cls-4" d="m323.308000762453048,552.944119065178711v156.746008442986749c0,.962878878134688-.119469735156599,1.890624645627213-.351416901422454,2.783194404922142-.801197933127696,3.148724607206532-2.930804946648095,5.756210561400621-5.763202865458879,7.204046479406315-1.525180238484609.794205629045791-3.268194342374954,1.236994356659125-5.109615474093516,1.236994356659125h-125.132471922031982c-2.544340729725263,0-4.877711205386731-.843409142953533-6.768378748571195-2.270139456040852-1.398632404096134-1.061285905941986-2.544169139436235-2.438855602698823-3.317354958713622-4.034259164859577-.730974609428813-1.483011926205108-1.138587328840913-3.148724607195618-1.138587328840913-4.919836620087153v-156.746008442986749c0-6.198999289013955,5.02527884954452-11.224235240975759,11.22432103612573-11.224235240975759h125.132471922031982c6.198999289013045,0,11.224235240974849,5.025235951961804,11.224235240974849,11.224235240975759Z"/>
  <line class="cls-14" x1="349.816186148150337" y1="594.922843863671005" x2="429.247082424258224" y2="594.922843863671005"/>
  <line class="cls-14" x1="349.816186148150337" y1="609.911859459673906" x2="414.632381874514067" y2="609.911859459673906"/>
  <line class="cls-14" x1="426.860715624785371" y1="609.911859459673906" x2="481.865326399810328" y2="609.911859459673906"/>
  <line class="cls-14" x1="349.816186148150337" y1="638.592537757776881" x2="368.817465697291482" y2="638.592537757776881"/>
  <line class="cls-14" x1="349.816186148150337" y1="652.35187578903151" x2="355.772942898232941" y2="652.35187578903151"/>
  <line class="cls-14" x1="394.825063755406518" y1="638.592537757776881" x2="423.648884921999525" y2="638.592537757776881"/>
  <line class="cls-14" x1="394.825063755406518" y1="652.35187578903151" x2="436.682586593651649" y2="652.35187578903151"/>
  <line class="cls-14" x1="349.816186148150337" y1="679.002221529001872" x2="391.762074802686584" y2="679.002221529001872"/>
  <line class="cls-14" x1="349.816186148150337" y1="694.056111429175871" x2="458.177967644927776" y2="694.056111429175871"/>
  <path class="cls-14" d="m190.619142828772965,686.341050950084536c8.988609852979607-23.850441091759421,32.019849419964885-40.806546379945758,59.014589073996831-40.806546379945758,26.994739654052864,0,50.031718984124382,16.956105288186336,59.020364050367789,40.806546379945758"/>
  <circle class="cls-14" cx="250.044006075600464" cy="605.232801938698685" r="29.177871771574928"/>
  <line class="cls-14" x1="90.304571605744059" y1="748.183471558902056" x2="709.69542839425776" y2="748.183471558902056"/>
  <line class="cls-10" x1="413.162854036396311" y1="367.555996941013291" x2="522.127934808750979" y2="367.555996941013291"/>
  <g>
    <path class="cls-1" d="m271.623411566161849,374.524092828157336v73.300252219773938c0,11.770843422153121-9.630690072671314,21.401533494824434-21.401533494824434,21.401533494824434h-36.521722133901676l-24.408381026059942,24.408446338355134-24.408511650653054-24.408446338355134h-36.521722133901676c-11.770843422151302,0-21.401533494823525-9.630690072671314-21.401533494823525-21.401533494824434v-73.300252219773938c0-11.770843422153121,9.630690072672223-21.401533494824434,21.401533494823525-21.401533494824434h121.860336944516348c11.770843422153121,0,21.401533494824434,9.630690072671314,21.401533494824434,21.401533494824434Z"/>
    <path class="cls-2" d="m165.483766915939668,436.694064995421286l-.000000000055479-.778761233042133c-.000000000069122-.930108742480115.754002112882517-1.684110855479958,1.684110855379913-1.684110855479958h.000169691274095c.93010874245283,0,1.684110855362633.754002112957096,1.684110855322615,1.684110855415383l-.000000000037289.778707025034237c-.000000000029104.92102406072172.746637523240679,1.667661584026973,1.667661583976042,1.667661584026973h4.040405111441942c.921083890731097,0,1.667769915762619-.74668602521615,1.667769915522513-1.667769915958161l-.000000000190084-.778598692708329c-.000000000240107-.930108742841185.754002112994385-1.684110856152074,1.684110855837389-1.684110856032021h.000003368223588c.930108739262323.000000000115506,1.684110849953868.75400210974567,1.684110851394507,1.68411084901436l.000000001225999.778707031657177c.000000001426997.921024061148273.746637525464394,1.667661584026973,1.667661586629038,1.667661584026973h4.040536743291341c.921009079956093,0,1.66763445892866-.746625378961653,1.66763445892866-1.667634458931389v-7.396091083846841h5.746791573023074c3.210586049303856,0,5.813280287551606-2.602694238234108,5.813280287551606-5.813280287540692v-4.924958833238634c1.718983787948673-3.132661227824428,2.626128184243498-6.640530062250036,2.626128184243498-10.340525557674482,0-14.044881412919494-12.83795516239843-25.471217809679729-28.618178128037471-25.471217809679729-15.780222965633584,0-28.618178128037471,11.426336396760234-28.618178128037471,25.471217809679729,0,3.699995495424446.907117313310664,7.207837246873169,2.626101101255699,10.340498474695778v4.924985769361228c0,3.210586130416232,2.602694303991484,5.813280434396802,5.813280434407716,5.813280434396802h5.746683094255786v7.396063958751256c0,.921024060731725.74663752329343,1.667661584026973,1.667661584036978,1.667661584026973h4.040536743287703c.920994122421689,0,1.667607375900843-.746613253516443,1.667607375848092-1.667607375954503Zm-10.318148461949932-24.219645774774108c0-4.023398418268698,3.261619038913523-7.285017539577893,7.285040683635998-7.285017539577893,4.023374988531032,0,7.284970699322002,3.261619121309195,7.284970699322002,7.285017539577893,0,4.023421746367603-3.261595710790971,7.285017539556065-7.284970699322002,7.285017539556065-4.023421644722475,0-7.285040683635998-3.261595793188462-7.285040683635998-7.285017539556065Zm20.988866175574003,0c0-4.023398418268698,3.261619038898971-7.285017539577893,7.285040683645093-7.285017539577893,4.023374988521027,0,7.28497069930836,3.261619121309195,7.28497069930836,7.285017539577893,0,4.023421746367603-3.261595710787333,7.285017539556065-7.28497069930836,7.285017539556065-4.023421644746122,0-7.285040683645093-3.261595793188462-7.285040683645093-7.285017539556065Zm-1.767431969909012,7.552562983556527l2.790576035389677,4.951364591998754c.616273197130795,1.093475322460108-.173899810972216,2.445782685957965-1.429087576030724,2.445782685957965h-5.580989572911676c-1.255241931013188,0-2.045333690177358-1.352307363497857-1.429060493048382-2.445782685957965l2.790440620484333-4.951364591998754c.627512633598599-1.113300063911083,2.230662518491044-1.113300063911083,2.858120986116774,0Z"/>
    <path class="cls-2" d="m214.762096696602384,402.127874926287404v-5.49560546875h10.26708984375v31.05712890625h-6.134765625v-25.5615234375h-4.13232421875Z"/>
  </g>
</svg>